<?xml version="1.0" encoding="UTF-8" standalone="no"?>
<svg width="395px" height="395px" viewBox="0 0 395 395" version="1.1" xmlns="http://www.w3.org/2000/svg" xmlns:xlink="http://www.w3.org/1999/xlink" xmlns:sketch="http://www.bohemiancoding.com/sketch/ns">
    <!-- Generator: Sketch 3.3.2 (12043) - http://www.bohemiancoding.com/sketch -->
    <title>Oval 1513 + Oval 1507 + Path 2333 + Path 2339 + Path 2334 + Path 2336</title>
    <desc>Created with Sketch.</desc>
    <defs>
        <circle id="path-1" cx="197.5" cy="197.5" r="197.5"></circle>
    </defs>
    <g id="Welcome" stroke="none" stroke-width="1" fill="none" fill-rule="evenodd" sketch:type="MSPage">
        <g id="Artboard-104" sketch:type="MSArtboardGroup" transform="translate(-125.000000, -93.000000)">
            <g id="Oval-1513-+-Oval-1507-+-Path-2333-+-Path-2339-+-Path-2334-+-Path-2336" sketch:type="MSLayerGroup" transform="translate(125.000000, 93.000000)">
                <mask id="mask-2" sketch:name="Oval 1513" fill="white">
                    <use xlink:href="#path-1"></use>
                </mask>
                <use id="Oval-1513" fill="#FFFFFF" sketch:type="MSShapeGroup" xlink:href="#path-1"></use>
                <g id="Oval-1507-+-Path-2333-+-Path-2339-+-Path-2334-+-Path-2336" mask="url(#mask-2)">
                    <g transform="translate(247.150581, 230.118633) scale(-1, 1) rotate(-23.000000) translate(-247.150581, -230.118633) translate(-2.519230, 43.797878)">
                        <g id="Path-2333-+-Path-2339-+-Path-2334-+-Path-2336" stroke="none" stroke-width="1" fill="none" fill-rule="evenodd" sketch:type="MSLayerGroup" transform="translate(203.189968, 36.813394)">
                            <path d="M101.071324,141.615892 C102.145966,152.191203 105.654448,188.478154 105.172396,206.967756 C104.604225,228.760501 105.054114,242.608415 112.074919,254.768805 C126.738561,280.166978 157.781365,280.166399 176.294068,269.478085 C194.806771,258.789771 209.375512,231.935523 194.937464,206.928092 C189.373589,197.29118 177.786443,187.863297 157.719375,176.629743 C140.631412,167.063894 111.346705,146.25522 103.02825,140.287642 C101.953609,129.712331 98.4451264,93.42538 98.9271791,74.9357783 C99.4953498,53.1430326 99.0454603,39.2951188 92.0246559,27.1347288 C77.361014,1.73655598 46.3182092,1.73713499 27.8055066,12.4254488 C9.29280397,23.1137627 -5.27593783,49.9680105 9.16211067,74.9754416 C14.7259851,84.6123539 26.3131314,94.0402368 46.3801999,105.273791 C63.4681624,114.83964 92.7528699,135.648314 101.071324,141.615892 Z" id="Path-2334" fill="#00BCD4" sketch:type="MSShapeGroup" transform="translate(102.049787, 140.951767) scale(-1, 1) translate(-102.049787, -140.951767) "></path>
                        </g>
                        <path d="M244.182956,314.407966 C258.395952,317.697649 272.187915,314.370294 293.487797,307.937572 C314.787679,301.504849 362.215685,293.575543 362.215685,293.575543 C362.215685,293.575543 324.160088,266.233098 306.722249,250.461751 C289.284409,234.690405 276.316238,226.380039 265.052669,223.773018 C235.824122,217.007896 213.976446,237.936336 209.313848,258.185507 C204.651249,278.434678 214.497713,307.537141 244.182956,314.407966 L244.182956,314.407966 L244.182956,314.407966 Z" id="Path-2340" stroke="none" fill="#00BCD4" fill-rule="evenodd" sketch:type="MSShapeGroup"></path>
                        <path d="M313.211805,133.984824 C326.774958,130.350589 336.885032,120.876755 351.893073,105.065199 C366.901113,89.2536434 403.311869,59.8793522 403.311869,59.8793522 C403.311869,59.8793522 358.321844,52.7028974 336.188962,46.4566593 C314.056079,40.2104213 299.19621,38.6835916 288.44763,41.5636643 C260.555464,49.0373464 251.868299,78.3278233 257.400978,98.97606 C262.933656,119.624297 284.883824,141.575284 313.211805,133.984824 Z" id="Path-2" stroke="none" fill="#00BCD4" fill-rule="evenodd" sketch:type="MSShapeGroup" transform="translate(329.566647, 87.841650) scale(-1, 1) translate(-329.566647, -87.841650) "></path>
                        <path d="M498.415828,143.481062 C498.415828,143.481062 449.972432,158.386723 423.887527,143.481062 C397.802621,128.575402 394.076205,106.216911 405.255451,128.575402" id="Path-3317" stroke="#FFFFFF" stroke-width="1" fill="none" sketch:type="MSShapeGroup"></path>
                    </g>
                </g>
            </g>
        </g>
    </g>
</svg>